<?xml version="1.0" encoding="utf-8"?>
<!-- Generator: Adobe Illustrator 21.0.2, SVG Export Plug-In . SVG Version: 6.00 Build 0)  -->
<svg version="1.1" id="Layer_1" xmlns="http://www.w3.org/2000/svg" xmlns:xlink="http://www.w3.org/1999/xlink" x="0px" y="0px"
	 viewBox="0 0 150 57" style="enable-background:new 0 0 150 57;" xml:space="preserve">
<style type="text/css">
	.st0{fill:#0082C9;}
	.st1{fill:#FFFFFF;}
</style>
<rect y="0" class="st0" width="150" height="57"/>
<g>
	<path class="st1" d="M42.8,46.8c-6,0-12,0-18,0c-3,0-4-0.8-4.5-3.8c-0.5-2.6-1-5.3-1.5-7.9c-0.5-2.4-0.2-4.6,1-6.8
		c2.6-5,5.3-10.1,7.8-15.1c1-2,2.5-2.9,4.7-2.9c6.9,0,13.8,0,20.8,0c2.2,0,3.7,0.9,4.7,2.9c2.6,5,5.2,10,7.8,15
		c1.1,2.2,1.5,4.3,1.1,6.7c-0.6,2.9-1.1,5.9-1.6,8.8c-0.4,2.1-1.6,3-4.1,3C54.9,46.8,48.8,46.8,42.8,46.8z M42.8,33.2
		c-5,0-9.9,0-14.9,0c-0.8,0-1.7-0.1-2.5,0.1c-1.7,0.2-2.5,1.3-2.2,3c0.2,1,0.3,2,0.5,3c0.5,2.9,1.4,3.6,4.3,3.6c7.1,0,14.1,0,21.2,0
		c3,0,6,0,9,0c2.2,0,3.2-0.9,3.6-3c0.2-1,0.3-1.9,0.5-2.9c0.5-2.7-0.4-3.8-3.1-3.8C53.7,33.2,48.2,33.2,42.8,33.2z"/>
	<path class="st1" d="M59.2,38.2c0,1.4-1.2,2.5-2.6,2.5c-1.4,0-2.5-1.3-2.5-2.6c0.1-1.3,1.2-2.5,2.5-2.5
		C58.1,35.6,59.2,36.8,59.2,38.2z"/>
</g>
</svg>
