<?xml version="1.0" encoding="utf-8"?>
<!-- Generator: Adobe Illustrator 21.0.2, SVG Export Plug-In . SVG Version: 6.00 Build 0)  -->
<svg version="1.1" id="Layer_1" xmlns="http://www.w3.org/2000/svg" xmlns:xlink="http://www.w3.org/1999/xlink" x="0px" y="0px"
	 viewBox="0 0 242 242" style="enable-background:new 0 0 242 242;" xml:space="preserve">
<style type="text/css">
	.st0{fill:#FFFFFF;}
</style>
<path d="M120.8,242C54.1,241.9,0,187.7,0,120.9C0,54,54.4-0.2,121.4,0C188.1,0.2,242.1,54.5,242,121.3
	C241.9,188,187.6,242.1,120.8,242z M121.6,186.6c22.7,0,45.3,0,68,0c9.2,0,13.7-3.4,15.2-11.2c2.1-11,4-21.9,6.1-32.9
	c1.7-8.9,0.2-17.1-4-25.1c-9.7-18.6-19.4-37.2-29-55.8c-3.7-7.3-9.5-10.8-17.6-10.8c-25.8,0-51.6,0-77.5,0
	c-8.1,0-13.9,3.5-17.6,10.8C55.6,80.5,45.8,99.2,36,117.9c-4.2,8-5.3,16.3-3.6,25.2c1.9,9.8,3.7,19.6,5.5,29.4
	c2,11,5.5,14.1,16.7,14.1C77,186.6,99.3,186.6,121.6,186.6z"/>
<path class="st0" d="M121.6,186.6c-22.3,0-44.6,0-67,0c-11.3,0-14.8-3-16.7-14.1c-1.8-9.8-3.6-19.6-5.5-29.4
	c-1.7-8.8-0.6-17.2,3.6-25.2c9.8-18.7,19.6-37.5,29.2-56.2c3.7-7.3,9.5-10.8,17.6-10.8c25.8,0,51.6,0,77.5,0
	c8.1,0,13.9,3.5,17.6,10.8c9.6,18.6,19.3,37.2,29,55.8c4.2,8,5.7,16.2,4,25.1c-2.1,10.9-4,21.9-6.1,32.9c-1.5,7.8-6,11.1-15.2,11.2
	C166.9,186.7,144.3,186.6,121.6,186.6z M121.7,136.2c-18.5,0-37,0-55.4,0c-3.2,0-6.4-0.2-9.5,0.2c-6.2,0.7-9.3,5-8.3,11.2
	c0.6,3.8,1.2,7.6,1.9,11.3c2,10.8,5.1,13.3,16.2,13.3c26.3,0,52.6,0,78.9,0c11.2,0,22.3,0.1,33.5,0c8.1-0.1,11.8-3.3,13.4-11.2
	c0.7-3.6,1.2-7.2,1.9-10.8c1.8-10.2-1.3-14-11.6-14C162.3,136.2,142,136.2,121.7,136.2z"/>
<path d="M121.7,136.2c20.3,0,40.6,0,60.9,0c10.3,0,13.4,3.8,11.6,14c-0.6,3.6-1.1,7.2-1.9,10.8c-1.6,7.9-5.3,11.1-13.4,11.2
	c-11.2,0.1-22.3,0-33.5,0c-26.3,0-52.6,0-78.9,0c-11,0-14.1-2.6-16.2-13.3c-0.7-3.8-1.3-7.5-1.9-11.3c-1-6.2,2-10.5,8.3-11.2
	c3.1-0.4,6.3-0.2,9.5-0.2C84.7,136.2,103.2,136.2,121.7,136.2z M183,154.6c0.1-5.2-4.3-9.6-9.5-9.6c-5,0-9.3,4.1-9.5,9.1
	c-0.2,5.2,4,9.7,9.2,9.8C178.4,164.1,182.9,159.8,183,154.6z"/>
<path class="st0" d="M183,154.6c-0.1,5.2-4.5,9.5-9.7,9.3c-5.2-0.1-9.4-4.7-9.2-9.8c0.2-5,4.5-9.1,9.5-9.1
	C178.7,145,183,149.4,183,154.6z"/>
</svg>
