<?xml version="1.0"?>
<svg width="1024" height="1024" xmlns="http://www.w3.org/2000/svg">
 <!-- Created with Method Draw - http://github.com/duopixel/Method-Draw/ -->

 <g>
  <title>background</title>
  <rect fill="none" id="canvas_background" height="1026" width="1026" y="-1" x="-1"/>
  <g display="none" overflow="visible" y="0" x="0" height="100%" width="100%" id="canvasGrid">
   <rect fill="url(#gridpattern)" stroke-width="0" height="400" width="580"/>
  </g>
 </g>
 <g>
  <title>Layer 1</title>
  <g stroke="null" id="svg_3">
   <path stroke="null" id="svg_4" fill="none" d="m0,1.666616l1023.330017,0l0,1019.666087l-1023.330017,0l0,-1019.666087z"/>
   <path stroke="null" id="svg_5" d="m825.064026,428.227936c-28.996033,-146.57782 -158.190002,-256.617065 -313.396027,-256.617065c-123.226013,0 -230.25,69.679062 -283.550003,171.645325c-128.342796,13.595428 -228.117996,121.93512 -228.117996,253.217926c0,140.629211 114.698997,254.91626 255.834,254.91626l554.309982,0c117.68103,0 213.186035,-95.167908 213.186035,-212.43042c0,-112.163757 -87.400024,-203.083954 -198.265991,-210.732025zm-14.920044,338.190765l-554.309982,0c-94.231995,0 -170.556099,-76.05011 -170.556099,-169.94458s76.324104,-169.94458 170.556099,-169.94458l30.274002,0c28.141998,-98.143463 118.109985,-169.944611 225.559998,-169.944611c129.623016,0 234.514984,104.514465 234.514984,233.672791l0,21.24353l63.960999,0c70.778992,0 127.912048,56.93222 127.912048,127.45871s-57.133057,127.45874 -127.912048,127.45874z"/>
  </g>
 </g>
</svg>