<?xml version="1.0" encoding="utf-8"?>
<!-- Generator: Adobe Illustrator 21.0.2, SVG Export Plug-In . SVG Version: 6.00 Build 0)  -->
<svg version="1.1" id="Layer_1" xmlns="http://www.w3.org/2000/svg" xmlns:xlink="http://www.w3.org/1999/xlink" x="0px" y="0px"
	 viewBox="0 0 266 126" style="enable-background:new 0 0 266 126;" xml:space="preserve">
<style type="text/css">
	.st0{fill:#FFFFFF;}
</style>
<g>
	<path class="st0" d="M131.7,114.4c-16.9,0-33.7,0-50.7,0c-8.6,0-11.1-2.2-12.6-10.7C67,96.3,65.7,89,64.3,81.5
		c-1.3-6.7-0.5-13,2.7-19.1c7.5-14.2,14.8-28.5,22.1-42.6c2.9-5.6,7.2-8.1,13.4-8.1c19.6,0,39.1,0,58.7,0c6.2,0,10.5,2.7,13.4,8.1
		c7.3,14.2,14.6,28.2,22,42.3c3.2,6,4.3,12.2,3,18.9c-1.6,8.3-3,16.5-4.6,25c-1.1,5.9-4.6,8.4-11.5,8.4
		C165.9,114.6,148.9,114.4,131.7,114.4z M131.7,76.2c-14,0-28,0-42,0c-2.4,0-4.8-0.2-7.2,0.2c-4.8,0.5-7,3.8-6.4,8.4
		c0.5,2.9,1,5.7,1.4,8.6c1.6,8.1,3.8,10,12.2,10c19.9,0,39.8,0,59.8,0c8.4,0,16.9,0,25.3,0c6.2,0,8.9-2.5,10.2-8.4
		c0.5-2.7,1-5.4,1.4-8.1c1.4-7.8-1-10.7-8.7-10.7C162.6,76.2,147.1,76.2,131.7,76.2z"/>
	<path class="st0" d="M178.2,90.2c0,4-3.3,7.2-7.3,7c-4,0-7.2-3.5-7-7.5c0.2-3.8,3.3-6.8,7.2-6.8C175,82.9,178.2,86.3,178.2,90.2z"
		/>
</g>
</svg>
