<?xml version="1.0" encoding="utf-8"?>
<!-- Generator: Adobe Illustrator 21.0.2, SVG Export Plug-In . SVG Version: 6.00 Build 0)  -->
<svg version="1.1" id="Layer_1" xmlns="http://www.w3.org/2000/svg" xmlns:xlink="http://www.w3.org/1999/xlink" x="0px" y="0px"
	 viewBox="0 0 320 200" style="enable-background:new 0 0 320 200;" xml:space="preserve">
<style type="text/css">
	.st0{fill:#FFFFFF;}
</style>
<g>
	<path class="st0" d="M90.3,173.3c-19.7,0-39.5,0-59.3,0c-10,0-13.1-2.7-14.8-12.5c-1.6-8.7-3.2-17.4-4.9-26
		c-1.5-7.8-0.5-15.2,3.2-22.3c8.7-16.6,17.4-33.2,25.9-49.8c3.3-6.5,8.4-9.6,15.6-9.6c22.8,0,45.7,0,68.6,0c7.2,0,12.3,3.1,15.6,9.6
		c8.5,16.5,17.1,32.9,25.7,49.4c3.7,7.1,5,14.3,3.5,22.2c-1.9,9.7-3.5,19.4-5.4,29.1c-1.3,6.9-5.3,9.8-13.5,9.9
		C130.4,173.4,110.4,173.3,90.3,173.3z M90.4,128.6c-16.4,0-32.8,0-49.1,0c-2.8,0-5.7-0.2-8.4,0.2c-5.5,0.6-8.2,4.4-7.4,9.9
		c0.5,3.4,1.1,6.7,1.7,10c1.8,9.6,4.5,11.8,14.3,11.8c23.3,0,46.6,0,69.9,0c9.9,0,19.7,0.1,29.7,0c7.2-0.1,10.5-2.9,11.9-9.9
		c0.6-3.2,1.1-6.4,1.7-9.6c1.6-9-1.2-12.4-10.3-12.4C126.4,128.6,108.4,128.6,90.4,128.6z"/>
	<path class="st0" d="M144.7,144.9c-0.1,4.6-4,8.4-8.6,8.2c-4.6-0.1-8.3-4.2-8.1-8.7c0.2-4.4,4-8.1,8.4-8.1
		C140.9,136.4,144.7,140.3,144.7,144.9z"/>
</g>
</svg>
